<svg xmlns="http://www.w3.org/2000/svg" fill="black" viewBox="0 0 32 32" height="32" width="32" aria-hidden="true" class="stroke-white group-hover:stroke-primary-pink"><path stroke-linecap="round" stroke-linejoin="round" stroke-width="1.5" d="M10.642 26.857c.722 0 1.308-.59 1.308-1.32 0-.729-.586-1.32-1.308-1.32-.723 0-1.309.591-1.309 1.32 0 .73.586 1.32 1.309 1.32ZM22.642 26.857c.722 0 1.308-.59 1.308-1.32 0-.729-.586-1.32-1.308-1.32-.723 0-1.309.591-1.309 1.32 0 .73.586 1.32 1.309 1.32ZM23.47 20.258H11.197c-.645 0-1.206-.43-1.35-1.042l-1.814-7.918C7.843 10.47 8.5 9.7 9.383 9.7h15.901c.884 0 1.54.781 1.35 1.597l-1.815 7.918c-.131.612-.693 1.042-1.35 1.042Z"></path><path stroke-linecap="round" stroke-linejoin="round" stroke-width="1.5" d="M5.333 5.279H6.1c.508 0 .941.478 1.043 1.144L8 11.02"></path></svg>